<?xml version="1.0" encoding="UTF-8" standalone="no"?>
<!-- Generator: Adobe Illustrator 19.0.0, SVG Export Plug-In . SVG Version: 6.00 Build 0)  -->

<svg
   xmlns:dc="http://purl.org/dc/elements/1.1/"
   xmlns:cc="http://creativecommons.org/ns#"
   xmlns:rdf="http://www.w3.org/1999/02/22-rdf-syntax-ns#"
   xmlns:svg="http://www.w3.org/2000/svg"
   xmlns="http://www.w3.org/2000/svg"
   xmlns:xlink="http://www.w3.org/1999/xlink"
   xmlns:sodipodi="http://sodipodi.sourceforge.net/DTD/sodipodi-0.dtd"
   xmlns:inkscape="http://www.inkscape.org/namespaces/inkscape"
   version="1.1"
   id="Layer_1"
   x="0px"
   y="0px"
   viewBox="0 0 2972.7 3546.1798"
   xml:space="preserve"
   inkscape:version="0.92.3 (2405546, 2018-03-11)"
   sodipodi:docname="pcf.svg"
   width="2972.7002"
   height="3546.1799"
   inkscape:export-filename="/home/eric/data/WORK/PROJECT/LIBRARY/PCF/LOGO/pcf.png"
   inkscape:export-xdpi="90"
   inkscape:export-ydpi="90"><metadata
     id="metadata67"><rdf:RDF><cc:Work
         rdf:about=""><dc:format>image/svg+xml</dc:format><dc:type
           rdf:resource="http://purl.org/dc/dcmitype/StillImage" /><dc:title></dc:title></cc:Work></rdf:RDF></metadata><defs
     id="defs65"><linearGradient
   inkscape:collect="always"
   id="linearGradient4574"><stop
     style="stop-color:#6a82fb;stop-opacity:1"
     offset="0"
     id="stop4570" /><stop
     style="stop-color:#fc5c7d;stop-opacity:1"
     offset="1"
     id="stop4572" /></linearGradient><linearGradient
   gradientUnits="userSpaceOnUse"
   y2="407.078"
   x2="259.853"
   y1="98.344002"
   x1="259.853"
   id="New_Gradient_Swatch_2"><stop
     id="stop4578"
     stop-color="#fc5c7d"
     offset="0" /><stop
     id="stop4580"
     stop-color="#f35e85"
     offset="0.129" /><stop
     id="stop4582"
     stop-color="#d9659b"
     offset="0.343" /><stop
     id="stop4584"
     stop-color="#b070bf"
     offset="0.616" /><stop
     id="stop4586"
     stop-color="#777ff0"
     offset="0.934" /><stop
     id="stop4588"
     stop-color="#6a82fb"
     offset="1" /></linearGradient><linearGradient
   xlink:href="#New_Gradient_Swatch_2"
   y2="407.078"
   x2="312"
   y1="98.344002"
   x1="312"
   id="New_Gradient_Swatch_2-2" />
	
	

		
		
		
		
		
		
		
		
		
	<linearGradient
   inkscape:collect="always"
   xlink:href="#linearGradient4574"
   id="linearGradient1093"
   x1="-11872.09"
   y1="3214.2947"
   x2="-10491.971"
   y2="3197.1025"
   gradientUnits="userSpaceOnUse"
   gradientTransform="matrix(0.66083591,0,0,0.66083585,-3500.4848,90.400559)" /><linearGradient
   inkscape:collect="always"
   xlink:href="#linearGradient4574"
   id="linearGradient994"
   x1="-11576.41"
   y1="1117.134"
   x2="-10487.861"
   y2="-659.4718"
   gradientUnits="userSpaceOnUse"
   gradientTransform="translate(108.59129)" /></defs><sodipodi:namedview
     pagecolor="#ffffff"
     bordercolor="#666666"
     borderopacity="1"
     objecttolerance="10"
     gridtolerance="10"
     guidetolerance="10"
     inkscape:pageopacity="0"
     inkscape:pageshadow="2"
     inkscape:window-width="3079"
     inkscape:window-height="2048"
     id="namedview63"
     showgrid="false"
     inkscape:zoom="0.11313709"
     inkscape:cx="4153.2615"
     inkscape:cy="-1457.6055"
     inkscape:window-x="728"
     inkscape:window-y="32"
     inkscape:window-maximized="0"
     inkscape:current-layer="layer3"
     fit-margin-top="200"
     fit-margin-left="200"
     fit-margin-right="200"
     fit-margin-bottom="200"
     showguides="false"
     inkscape:guide-bbox="true"><sodipodi:guide
       position="13905.313,1199.1992"
       orientation="1,0"
       id="guide4173"
       inkscape:locked="false" /><sodipodi:guide
       position="13996.206,1265.9309"
       orientation="0,1"
       id="guide4175"
       inkscape:locked="false" /></sodipodi:namedview><g
     inkscape:groupmode="layer"
     id="layer2"
     inkscape:label="Logo"
     style="display:inline"
     transform="translate(12407.685,1027.8896)" /><g
     inkscape:groupmode="layer"
     id="layer1"
     inkscape:label="Hidden"
     style="display:none"
     sodipodi:insensitive="true"
     transform="translate(12407.685,1027.8896)"><g
       id="g4186"><circle
         style="opacity:1;fill:#ff914e;fill-opacity:1;stroke:none;stroke-width:300;stroke-linecap:butt;stroke-linejoin:miter;stroke-miterlimit:4;stroke-dasharray:none;stroke-dashoffset:198.6486969;stroke-opacity:1"
         id="circle4188"
         cx="1497.5133"
         cy="1252.4486"
         r="1100.2792" /><circle
         r="480.70587"
         cy="1252.4486"
         cx="1497.5133"
         id="circle4190"
         style="opacity:1;fill:#ffffff;fill-opacity:1;stroke:none;stroke-width:300;stroke-linecap:butt;stroke-linejoin:miter;stroke-miterlimit:4;stroke-dasharray:none;stroke-dashoffset:198.6486969;stroke-opacity:1" /><rect
         style="opacity:1;fill:#ffffff;fill-opacity:1"
         id="rect4192"
         width="2323.6411"
         height="210.02153"
         x="331.68735"
         y="1147.2599" /><rect
         y="1392.7263"
         x="-2417.8455"
         height="210.00069"
         width="2336.2964"
         id="rect4194"
         style="opacity:1;fill:#ffffff;fill-opacity:1"
         transform="rotate(-90)" /><circle
         style="opacity:1;fill:#ff914e;fill-opacity:1;stroke:none;stroke-width:300;stroke-linecap:butt;stroke-linejoin:miter;stroke-miterlimit:4;stroke-dasharray:none;stroke-dashoffset:198.6486969;stroke-opacity:1"
         id="circle4196"
         cx="1497.5133"
         cy="1252.4486"
         r="266.82736" /></g></g><g
     inkscape:groupmode="layer"
     id="layer3"
     inkscape:label="Text"
     style="display:inline"
     transform="translate(12407.685,1027.8896)"><text
   xml:space="preserve"
   style="font-style:normal;font-weight:normal;font-size:11.76027107px;line-height:0%;font-family:sans-serif;letter-spacing:0px;word-spacing:0px;fill:#4160fa;fill-opacity:1;stroke:none;stroke-width:0.98002267px;stroke-linecap:butt;stroke-linejoin:miter;stroke-opacity:1"
   x="-12274.562"
   y="2317.6187"
   id="text4236"
   transform="scale(0.99971028,1.0002898)"><tspan
     sodipodi:role="line"
     id="tspan4238"
     x="-12274.562"
     y="2317.6187"
     style="font-style:normal;font-variant:normal;font-weight:bold;font-stretch:normal;font-size:1131.04516602px;line-height:1.25;font-family:Orbitron;-inkscape-font-specification:'Orbitron Bold';fill:#4160fa;fill-opacity:1;stroke-width:0.98002267px">PCF</tspan></text>



<g
   id="g890"
   transform="matrix(9.2872066,0,0,9.2872066,-8664.8032,-1195.5478)">
</g><g
   id="g892"
   transform="matrix(9.2872066,0,0,9.2872066,-8664.8032,-1195.5478)">
</g><g
   id="g894"
   transform="matrix(9.2872066,0,0,9.2872066,-8664.8032,-1195.5478)">
</g><g
   id="g896"
   transform="matrix(9.2872066,0,0,9.2872066,-8664.8032,-1195.5478)">
</g><g
   id="g898"
   transform="matrix(9.2872066,0,0,9.2872066,-8664.8032,-1195.5478)">
</g><g
   id="g900"
   transform="matrix(9.2872066,0,0,9.2872066,-8664.8032,-1195.5478)">
</g><g
   id="g902"
   transform="matrix(9.2872066,0,0,9.2872066,-8664.8032,-1195.5478)">
</g><g
   id="g904"
   transform="matrix(9.2872066,0,0,9.2872066,-8664.8032,-1195.5478)">
</g><g
   id="g906"
   transform="matrix(9.2872066,0,0,9.2872066,-8664.8032,-1195.5478)">
</g><g
   id="g908"
   transform="matrix(9.2872066,0,0,9.2872066,-8664.8032,-1195.5478)">
</g><g
   id="g910"
   transform="matrix(9.2872066,0,0,9.2872066,-8664.8032,-1195.5478)">
</g><g
   id="g912"
   transform="matrix(9.2872066,0,0,9.2872066,-8664.8032,-1195.5478)">
</g><g
   id="g914"
   transform="matrix(9.2872066,0,0,9.2872066,-8664.8032,-1195.5478)">
</g><g
   id="g916"
   transform="matrix(9.2872066,0,0,9.2872066,-8664.8032,-1195.5478)">
</g><g
   id="g918"
   transform="matrix(9.2872066,0,0,9.2872066,-8664.8032,-1195.5478)">
</g><path
   style="fill:url(#linearGradient994);fill-opacity:1;stroke:none;stroke-width:0.42210352"
   inkscape:connector-curvature="0"
   d="m -10960.881,-825.09254 c -26.592,6.75366 -64.582,29.54725 -83.154,49.38611 -9.286,10.13049 -23.216,31.23567 -30.392,46.8535 -10.974,23.63779 -13.085,32.92407 -13.085,62.04922 -0.422,18.57255 0.844,39.67773 2.533,46.85349 l 2.955,12.6631 -251.152,144.78151 -251.152,144.35941 -15.617,-13.50731 c -8.443,-7.59787 -27.859,-19.41676 -43.055,-26.59252 -24.904,-11.8189 -31.236,-13.08521 -67.537,-13.08521 -31.657,0.4221 -45.165,2.53262 -64.581,10.13048 -34.191,13.50731 -70.914,48.54191 -88.22,83.9986 -13.085,26.17042 -13.929,30.81356 -13.929,72.60181 0,40.52194 1.266,46.43139 12.241,69.64708 17.306,35.4567 52.34,69.224982 87.797,84.420709 l 28.703,12.241003 V 251.69357 541.67869 l -21.105,7.59787 c -82.732,29.54724 -129.164,126.20895 -100.883,209.36335 16.04,48.1198 44.743,79.35546 92.441,102.14905 24.482,11.8189 31.236,13.08521 67.536,13.08521 36.301,0 43.055,-1.26631 67.537,-13.08521 15.196,-7.17576 35.035,-19.41676 43.477,-26.59252 l 15.617,-13.92942 251.152,144.35941 250.73,143.93727 -2.955,13.5073 c -1.689,7.5979 -2.955,29.1252 -2.533,48.1198 0,30.8136 1.689,37.5673 15.618,65.8482 18.573,37.9893 43.477,62.0492 82.31,80.1997 25.749,12.241 32.08,13.5073 68.381,13.5073 36.301,0 42.632,-1.2663 68.381,-13.5073 38.833,-18.1505 63.737,-42.2104 82.31,-80.1997 13.929,-28.2809 15.618,-35.0346 15.618,-65.8482 0.422,-18.9946 -0.844,-40.5219 -2.533,-47.6977 l -2.955,-12.6631 87.376,-50.2303 c 48.12,-27.4367 161.243,-92.44065 251.574,-144.78149 l 163.776,-94.12908 11.397,10.13048 c 34.19,31.65776 78.089,47.2756 124.52,43.89877 46.432,-2.95473 75.557,-16.46204 108.481,-48.96401 37.1443,-37.56722 47.6963,-62.89343 48.1193,-118.61109 0,-36.30091 -1.267,-42.63246 -13.508,-68.38078 -17.7277,-37.98931 -42.2093,-63.31553 -78.5103,-81.46598 -16.04,-8.01996 -32.502,-14.77362 -35.879,-14.77362 -5.909,0 -6.331,-21.94938 -3.799,-199.65497 1.689,-109.32482 2.955,-240.17691 2.955,-289.985126 v -91.174362 l 27.437,-11.818899 c 69.2246,-29.969351 107.2133,-93.284883 102.1483,-168.419313 -2.955,-44.74297 -19.417,-78.08915 -53.6063,-109.74691 -35.035,-32.50198 -62.05,-42.63246 -113.968,-43.05456 -35.035,0 -43.477,1.68841 -65.004,11.8189 -13.93,6.33155 -33.346,18.15045 -43.477,26.59252 l -18.15,14.77362 -182.349,-105.10378 c -100.461,-57.82818 -213.585,-122.83212 -251.152,-144.78151 l -68.381,-39.25563 2.955,-12.6631 c 1.689,-7.17576 2.955,-28.70304 2.533,-47.6977 0,-30.81356 -1.689,-37.56722 -15.618,-65.84815 -28.281,-56.98398 -79.355,-91.17436 -141.405,-94.12909 -17.728,-0.84421 -39.677,0.4221 -48.964,2.53262 z m 70.914,68.38077 c 36.301,10.9747 70.069,57.40608 70.069,96.23961 0,52.34084 -48.964,101.30485 -101.305,101.30485 -52.341,0 -101.305,-48.96401 -101.305,-101.30485 0,-26.59252 9.709,-48.1198 31.658,-69.64708 29.547,-29.96935 61.205,-37.98932 100.883,-26.59253 z m -139.717,224.55908 c 65.849,53.18505 157.867,52.76294 219.916,-1.68841 16.04,-14.35152 16.04,-14.35152 29.126,-6.75366 7.597,3.79893 119.877,68.38077 249.885,143.0931 l 236.378,136.33944 -2.111,16.46204 c -2.954,25.32621 -2.532,61.20501 0.844,80.19967 l 3.377,16.88414 -247.352,141.4046799 c -135.918,77.6670491 -249.041,142.2488901 -251.152,142.6709901 -2.11,0.84421 -10.975,-4.64314 -19.417,-12.241 -8.442,-7.17576 -28.281,-19.41676 -43.476,-26.592522 -24.482,-11.818899 -31.236,-13.085209 -67.537,-13.085209 -36.301,0 -43.055,1.26631 -67.537,13.085209 -15.195,7.175762 -34.612,18.994662 -43.054,26.592522 -8.442,7.17576 -16.462,13.08521 -17.728,13.08521 -2.111,0 -222.871,-126.208955 -435.189,-249.04108 l -63.316,-36.30091 2.111,-14.77362 c 2.532,-18.57256 2.532,-65.00394 0,-83.5765 l -2.111,-14.77362 225.826,-130.00789 c 124.098,-71.3355 235.533,-135.49523 246.93,-142.24889 11.819,-6.75366 22.794,-12.241 24.482,-12.6631 2.111,0 11.397,5.90944 21.105,13.92941 z m -636.11,238.06639 c 35.457,18.15045 54.03,48.96401 54.03,89.48595 0,108.058504 -147.314,139.294166 -192.057,40.52194 -23.638,-51.49663 4.221,-115.65637 59.094,-136.33944 20.261,-7.59786 57.828,-4.64314 78.933,6.33155 z m 1568.537,-5.06524 c 21.527,7.17576 45.587,28.28094 56.984,49.38611 10.131,18.15045 10.131,71.7576 0.422,89.90805 -25.748,47.2756 -83.576,68.80288 -130.008,47.6977 -40.522,-18.15045 -60.783,-49.38611 -60.783,-92.44067 0,-32.92407 10.553,-56.13977 35.035,-76.40074 29.125,-24.90411 62.049,-30.81356 98.35,-18.15045 z m -1235.497,352.878551 250.73,144.359409 -2.955,12.6631 c -1.689,7.17576 -2.955,28.28094 -2.533,46.8535 0,29.12514 2.111,38.41142 13.085,62.04922 17.729,37.98931 42.211,63.31552 78.512,81.46598 16.04,8.01996 32.08,14.77362 35.034,14.77362 5.066,0 5.91,48.1198 5.91,291.25144 0,230.04642 -1.267,291.25143 -5.065,291.25143 -10.131,0 -56.984,24.48199 -71.758,37.56719 -8.442,7.1758 -16.04,13.0852 -17.728,13.0852 -2.111,0 -110.169,-61.62708 -405.642,-232.57901 -83.154,-47.6977 -92.863,-54.45136 -91.596,-63.31553 4.643,-38.83352 1.688,-83.1544 -7.176,-106.37009 -18.573,-47.27559 -56.984,-83.9986 -103.416,-98.77223 l -23.637,-7.59786 V 250.00515 c 0,-273.523085 0.422,-289.985123 7.598,-289.985123 11.396,0 47.697,-18.572555 68.38,-35.034592 10.553,-8.442071 19.417,-15.195728 20.261,-15.195728 0.844,-0.422103 113.968,64.581841 251.996,143.937304 z m 1084.806,-135.917336 c 12.663,13.929416 45.165,32.924075 66.693,38.411421 l 19.838,5.487346 v 91.174362 c 0,49.808216 -1.266,180.238206 -2.954,289.985126 l -2.533,199.23287 -24.482,8.86417 c -67.959,24.482 -114.39,97.08381 -108.058,168.41931 1.688,15.19573 3.798,31.65776 5.065,36.3009 1.688,7.17576 -29.125,26.59252 -241.021,147.73624 -133.807,76.40074 -246.931,140.98258 -251.152,143.09308 -5.909,2.9547 -11.397,0.4221 -23.216,-10.1305 -15.617,-13.5073 -62.049,-37.98929 -72.179,-37.98929 -4.221,0 -5.488,-61.20501 -5.488,-291.25143 0,-243.13164 0.845,-291.25144 5.91,-291.25144 2.954,0 18.994,-6.75366 35.034,-14.77362 36.301,-18.15046 60.783,-43.47667 78.512,-81.46598 10.974,-23.6378 13.085,-32.92408 13.085,-62.04922 0.422,-18.57256 -0.844,-39.67774 -2.533,-46.8535 l -2.955,-12.6631 203.454,-116.922679 c 111.858,-64.159737 224.559,-129.163681 249.886,-143.937304 25.748,-15.195727 47.697,-27.43673 48.964,-27.858833 1.266,0 5.909,3.798932 10.13,8.442071 z m -642.019,237.222185 c 23.215,6.75365 58.25,41.78825 65.004,65.00394 11.819,39.67773 3.376,71.3355 -26.593,100.88275 -42.632,43.05456 -96.662,43.05456 -139.294,0 -43.055,-42.63246 -43.055,-96.66171 0,-139.29417 29.547,-29.96935 61.205,-37.98932 100.883,-26.59252 z m -775.827,462.62547 c 35.457,18.15045 54.03,48.96401 54.03,89.48595 0,100.88274 -132.119,138.87206 -184.882,53.18504 -33.768,-54.45135 -8.864,-126.20896 51.075,-148.58044 21.105,-8.01997 58.25,-5.06524 79.777,5.90945 z m 1568.537,-5.06525 c 38.834,13.08521 66.692,52.34084 66.692,94.5512 0,75.13442 -79.777,123.67633 -146.469,89.06384 -35.035,-17.72835 -53.608,-48.54191 -53.608,-89.06384 0,-70.9134 65.849,-117.76689 133.385,-94.5512 z m -792.71,454.18342 c 36.301,10.9747 70.069,57.4061 70.069,96.2396 0,52.3408 -48.964,101.3048 -101.305,101.3048 -52.341,0 -101.305,-48.964 -101.305,-101.3048 0,-26.5925 9.709,-48.1198 31.658,-69.6471 29.547,-29.9693 61.205,-37.9893 100.883,-26.5925 z"
   id="path975" /></g><g
     id="g33"
     transform="translate(12349.412,3963.6616)" /><g
     id="g35"
     transform="translate(12349.412,3963.6616)" /><g
     id="g37"
     transform="translate(12349.412,3963.6616)" /><g
     id="g39"
     transform="translate(12349.412,3963.6616)" /><g
     id="g41"
     transform="translate(12349.412,3963.6616)" /><g
     id="g43"
     transform="translate(12349.412,3963.6616)" /><g
     id="g45"
     transform="translate(12349.412,3963.6616)" /><g
     id="g47"
     transform="translate(12349.412,3963.6616)" /><g
     id="g49"
     transform="translate(12349.412,3963.6616)" /><g
     id="g51"
     transform="translate(12349.412,3963.6616)" /><g
     id="g53"
     transform="translate(12349.412,3963.6616)" /><g
     id="g55"
     transform="translate(12349.412,3963.6616)" /><g
     id="g57"
     transform="translate(12349.412,3963.6616)" /><g
     id="g59"
     transform="translate(12349.412,3963.6616)" /><g
     id="g61"
     transform="translate(12349.412,3963.6616)" /></svg>