<?xml version="1.0" encoding="UTF-8" standalone="no"?>
<!-- Generator: Adobe Illustrator 19.0.0, SVG Export Plug-In . SVG Version: 6.00 Build 0)  -->

<svg
   version="1.1"
   id="Layer_1"
   x="0px"
   y="0px"
   viewBox="-100 -100 1962.9793 2356.2303"
   xml:space="preserve"
   inkscape:version="1.2.2 (732a01da63, 2022-12-09)"
   sodipodi:docname="pcf.svg"
   width="1962.979"
   height="2356.23"
   inkscape:export-filename="pcf.png"
   inkscape:export-xdpi="90"
   inkscape:export-ydpi="90"
   xmlns:inkscape="http://www.inkscape.org/namespaces/inkscape"
   xmlns:sodipodi="http://sodipodi.sourceforge.net/DTD/sodipodi-0.dtd"
   xmlns:xlink="http://www.w3.org/1999/xlink"
   xmlns="http://www.w3.org/2000/svg"
   xmlns:svg="http://www.w3.org/2000/svg"
   xmlns:rdf="http://www.w3.org/1999/02/22-rdf-syntax-ns#"
   xmlns:cc="http://creativecommons.org/ns#"
   xmlns:dc="http://purl.org/dc/elements/1.1/"><metadata
     id="metadata67"><rdf:RDF><cc:Work
         rdf:about=""><dc:format>image/svg+xml</dc:format><dc:type
           rdf:resource="http://purl.org/dc/dcmitype/StillImage" /></cc:Work></rdf:RDF></metadata><defs
     id="defs65"><linearGradient
   inkscape:collect="always"
   id="linearGradient4574"><stop
     style="stop-color:#6a82fb;stop-opacity:1"
     offset="0"
     id="stop4570" /><stop
     style="stop-color:#fc5c7d;stop-opacity:1"
     offset="1"
     id="stop4572" /></linearGradient><linearGradient
   gradientUnits="userSpaceOnUse"
   y2="407.078"
   x2="259.853"
   y1="98.344002"
   x1="259.853"
   id="New_Gradient_Swatch_2"><stop
     id="stop4578"
     stop-color="#fc5c7d"
     offset="0" /><stop
     id="stop4580"
     stop-color="#f35e85"
     offset="0.129" /><stop
     id="stop4582"
     stop-color="#d9659b"
     offset="0.343" /><stop
     id="stop4584"
     stop-color="#b070bf"
     offset="0.616" /><stop
     id="stop4586"
     stop-color="#777ff0"
     offset="0.934" /><stop
     id="stop4588"
     stop-color="#6a82fb"
     offset="1" /></linearGradient><linearGradient
   xlink:href="#New_Gradient_Swatch_2"
   y2="407.078"
   x2="312"
   y1="98.344002"
   x1="312"
   id="New_Gradient_Swatch_2-2" />
	
	

		
		
		
		
		
		
		
		
		
	<linearGradient
   inkscape:collect="always"
   xlink:href="#linearGradient4574"
   id="linearGradient1093"
   x1="-11872.09"
   y1="3214.2947"
   x2="-10491.971"
   y2="3197.1025"
   gradientUnits="userSpaceOnUse"
   gradientTransform="matrix(0.66083591,0,0,0.66083585,-3500.4848,90.400559)" /><linearGradient
   inkscape:collect="always"
   xlink:href="#linearGradient4574"
   id="linearGradient994"
   x1="-11576.41"
   y1="1117.134"
   x2="-10487.861"
   y2="-659.4718"
   gradientUnits="userSpaceOnUse"
   gradientTransform="matrix(0.68534875,0,0,0.68534875,-3766.8497,-260.4965)" /></defs><sodipodi:namedview
     pagecolor="#ffffff"
     bordercolor="#666666"
     borderopacity="1"
     objecttolerance="10"
     gridtolerance="10"
     guidetolerance="10"
     inkscape:pageopacity="0"
     inkscape:pageshadow="2"
     inkscape:window-width="3079"
     inkscape:window-height="2048"
     id="namedview63"
     showgrid="false"
     inkscape:zoom="0.16000001"
     inkscape:cx="-468.74997"
     inkscape:cy="-1206.2499"
     inkscape:window-x="728"
     inkscape:window-y="32"
     inkscape:window-maximized="0"
     inkscape:current-layer="layer3"
     fit-margin-top="300"
     fit-margin-left="100"
     fit-margin-right="100"
     fit-margin-bottom="100"
     showguides="false"
     inkscape:guide-bbox="true"
     inkscape:showpageshadow="0"
     inkscape:pagecheckerboard="0"
     inkscape:deskcolor="#d1d1d1"><sodipodi:guide
       position="13705.316,209.24942"
       orientation="1,0"
       id="guide4173"
       inkscape:locked="false" /><sodipodi:guide
       position="13796.209,275.98113"
       orientation="0,1"
       id="guide4175"
       inkscape:locked="false" /></sodipodi:namedview><g
     inkscape:groupmode="layer"
     id="layer2"
     inkscape:label="Logo"
     style="display:inline"
     transform="translate(12207.685,827.88959)" /><g
     inkscape:groupmode="layer"
     id="layer1"
     inkscape:label="Hidden"
     style="display:none"
     sodipodi:insensitive="true"
     transform="translate(12207.685,827.88959)"><g
       id="g4186"><circle
         style="opacity:1;fill:#ff914e;fill-opacity:1;stroke:none;stroke-width:300;stroke-linecap:butt;stroke-linejoin:miter;stroke-miterlimit:4;stroke-dasharray:none;stroke-dashoffset:198.649;stroke-opacity:1"
         id="circle4188"
         cx="1497.5133"
         cy="1252.4486"
         r="1100.2792" /><circle
         r="480.70587"
         cy="1252.4486"
         cx="1497.5133"
         id="circle4190"
         style="opacity:1;fill:#ffffff;fill-opacity:1;stroke:none;stroke-width:300;stroke-linecap:butt;stroke-linejoin:miter;stroke-miterlimit:4;stroke-dasharray:none;stroke-dashoffset:198.649;stroke-opacity:1" /><rect
         style="opacity:1;fill:#ffffff;fill-opacity:1"
         id="rect4192"
         width="2323.6411"
         height="210.02153"
         x="331.68735"
         y="1147.2599" /><rect
         y="1392.7263"
         x="-2417.8455"
         height="210.00069"
         width="2336.2964"
         id="rect4194"
         style="opacity:1;fill:#ffffff;fill-opacity:1"
         transform="rotate(-90)" /><circle
         style="opacity:1;fill:#ff914e;fill-opacity:1;stroke:none;stroke-width:300;stroke-linecap:butt;stroke-linejoin:miter;stroke-miterlimit:4;stroke-dasharray:none;stroke-dashoffset:198.649;stroke-opacity:1"
         id="circle4196"
         cx="1497.5133"
         cy="1252.4486"
         r="266.82736" /></g></g><g
     inkscape:groupmode="layer"
     id="layer3"
     inkscape:label="Text"
     style="display:inline"
     transform="translate(12207.685,827.88959)"><text
   xml:space="preserve"
   style="font-style:normal;font-weight:normal;font-size:8.05989px;line-height:0%;font-family:sans-serif;letter-spacing:0px;word-spacing:0px;fill:#4160fa;fill-opacity:1;stroke:none;stroke-width:0.671657px;stroke-linecap:butt;stroke-linejoin:miter;stroke-opacity:1"
   x="-12254.632"
   y="1327.9561"
   id="text4236"
   transform="scale(0.99971028,1.0002898)"><tspan
     sodipodi:role="line"
     id="tspan4238"
     x="-12254.632"
     y="1327.9561"
     style="font-style:normal;font-variant:normal;font-weight:bold;font-stretch:normal;font-size:775.16px;line-height:1.25;font-family:Orbitron;-inkscape-font-specification:'Orbitron Bold';fill:#4160fa;fill-opacity:1;stroke-width:0.671657px">PCF</tspan></text>





<g
   id="g890"
   transform="matrix(9.2872066,0,0,9.2872066,-8664.8032,-1195.5478)">
</g><g
   id="g892"
   transform="matrix(9.2872066,0,0,9.2872066,-8664.8032,-1195.5478)">
</g><g
   id="g894"
   transform="matrix(9.2872066,0,0,9.2872066,-8664.8032,-1195.5478)">
</g><g
   id="g896"
   transform="matrix(9.2872066,0,0,9.2872066,-8664.8032,-1195.5478)">
</g><g
   id="g898"
   transform="matrix(9.2872066,0,0,9.2872066,-8664.8032,-1195.5478)">
</g><g
   id="g900"
   transform="matrix(9.2872066,0,0,9.2872066,-8664.8032,-1195.5478)">
</g><g
   id="g902"
   transform="matrix(9.2872066,0,0,9.2872066,-8664.8032,-1195.5478)">
</g><g
   id="g904"
   transform="matrix(9.2872066,0,0,9.2872066,-8664.8032,-1195.5478)">
</g><g
   id="g906"
   transform="matrix(9.2872066,0,0,9.2872066,-8664.8032,-1195.5478)">
</g><g
   id="g908"
   transform="matrix(9.2872066,0,0,9.2872066,-8664.8032,-1195.5478)">
</g><g
   id="g910"
   transform="matrix(9.2872066,0,0,9.2872066,-8664.8032,-1195.5478)">
</g><g
   id="g912"
   transform="matrix(9.2872066,0,0,9.2872066,-8664.8032,-1195.5478)">
</g><g
   id="g914"
   transform="matrix(9.2872066,0,0,9.2872066,-8664.8032,-1195.5478)">
</g><g
   id="g916"
   transform="matrix(9.2872066,0,0,9.2872066,-8664.8032,-1195.5478)">
</g><g
   id="g918"
   transform="matrix(9.2872066,0,0,9.2872066,-8664.8032,-1195.5478)">
</g><path
   style="fill:url(#linearGradient994);fill-opacity:1;stroke:none;stroke-width:0.289288"
   inkscape:connector-curvature="0"
   d="m -11353.298,-825.97264 c -18.225,4.62862 -44.262,20.25017 -56.99,33.84671 -6.364,6.94292 -15.911,21.40733 -20.829,32.11099 -7.521,16.20013 -8.968,22.56447 -8.968,42.52535 -0.289,12.72868 0.579,27.19309 1.736,32.11099 l 2.025,8.67863 -172.126,99.22583 -172.127,98.93654 -10.703,-9.25722 c -5.787,-5.20719 -19.093,-13.30725 -29.508,-18.22515 -17.068,-8.10006 -21.407,-8.96793 -46.286,-8.96793 -21.696,0.28929 -30.954,1.73573 -44.261,6.94291 -23.433,9.25722 -48.601,33.26814 -60.461,57.56834 -8.968,17.93586 -9.546,21.11803 -9.546,49.75756 0,27.77166 0.867,31.82169 8.389,47.73254 11.861,24.3002 35.871,47.44325 60.171,57.85762 l 19.672,8.38936 V -87.998627 110.74231 l -14.464,5.20719 c -56.701,20.25017 -88.523,86.49715 -69.14,143.48691 10.993,32.97885 30.664,54.38617 63.354,70.00772 16.779,8.10007 21.408,8.96794 46.286,8.96794 24.879,0 29.507,-0.86787 46.286,-8.96794 10.415,-4.91789 24.011,-13.30725 29.797,-18.22515 l 10.703,-9.54651 172.127,98.93654 171.837,98.64723 -2.025,9.25721 c -1.157,5.20721 -2.025,19.96092 -1.736,32.97885 0,21.11806 1.158,25.7467 10.704,45.12898 12.729,26.03592 29.797,42.52534 56.411,54.96476 17.647,8.38936 21.986,9.25721 46.865,9.25721 24.879,0 29.218,-0.86785 46.865,-9.25721 26.614,-12.43942 43.682,-28.92884 56.411,-54.96476 9.546,-19.38228 10.703,-24.01092 10.703,-45.12898 0.29,-13.01793 -0.578,-27.77164 -1.736,-32.68956 l -2.025,-8.67864 59.883,-34.42527 c 32.979,-18.80371 110.508,-63.35409 172.416,-99.22582 l 112.244,-64.51124 7.811,6.94291 c 23.432,21.6966 53.518,32.40027 85.339,30.08597 31.823,-2.02503 51.783,-11.28224 74.348,-33.55743 25.457,-25.74664 32.688,-43.10393 32.978,-81.28996 0,-24.87878 -0.868,-29.2181 -9.257,-46.86468 -12.15,-26.03593 -28.929,-43.39322 -53.807,-55.83261 -10.993,-5.49647 -22.276,-10.12508 -24.59,-10.12508 -4.05,0 -4.339,-15.04298 -2.604,-136.833283 1.158,-74.925627 2.026,-164.604947 2.026,-198.740947 v -62.48623 l 18.803,-8.10007 c 47.443,-20.53946 73.479,-63.93268 70.008,-115.42596 -2.026,-30.66454 -13.308,-53.5183 -36.739,-75.21491 -24.012,-22.27519 -42.526,-29.2181 -78.108,-29.50739 -24.011,0 -29.797,1.15715 -44.551,8.10007 -9.546,4.33932 -22.853,12.43939 -29.796,18.22515 l -12.44,10.12508 -124.972,-72.03274 c -68.851,-39.63247 -146.38,-84.18284 -172.127,-99.22583 l -46.865,-26.9038 2.025,-8.67863 c 1.158,-4.9179 2.026,-19.6716 1.736,-32.68956 0,-21.11804 -1.157,-25.74665 -10.703,-45.12895 -19.383,-39.0539 -54.386,-62.48623 -96.912,-64.51125 -12.15,-0.57858 -27.193,0.28928 -33.557,1.73572 z m 48.6,46.86468 c 24.879,7.5215 48.022,39.34318 48.022,65.95769 0,35.87173 -33.557,69.42916 -69.429,69.42916 -35.872,0 -69.429,-33.55743 -69.429,-69.42916 0,-18.22515 6.654,-32.97884 21.696,-47.73253 20.25,-20.53946 41.947,-26.03594 69.14,-18.22516 z m -95.755,153.90128 c 45.13,36.45031 108.194,36.16102 150.72,-1.15715 10.993,-9.83579 10.993,-9.83579 19.961,-4.62861 5.207,2.60359 82.158,46.86468 171.258,98.06868 l 162.002,93.44006 -1.447,11.28224 c -2.024,17.35729 -1.735,41.94678 0.578,54.96474 l 2.315,11.57153 -169.522,96.91152 c -93.152,53.22901 -170.68,97.4901 -172.127,97.77938 -1.446,0.57858 -7.522,-3.18217 -13.308,-8.38935 -5.785,-4.9179 -19.382,-13.30726 -29.796,-18.22515 -16.779,-8.10007 -21.407,-8.96794 -46.286,-8.96794 -24.879,0 -29.508,0.86787 -46.287,8.96794 -10.413,4.91789 -23.721,13.01796 -29.507,18.22515 -5.785,4.9179 -11.282,8.96793 -12.149,8.96793 -1.447,0 -152.745,-86.49715 -298.257,-170.67999 l -43.393,-24.87879 1.447,-10.12508 c 1.735,-12.72868 1.735,-44.55037 0,-57.27905 l -1.447,-10.12508 154.769,-89.10074 c 85.051,-48.8897 161.423,-92.86149 169.233,-97.4901 8.101,-4.62861 15.622,-8.38936 16.779,-8.67864 1.447,0 7.811,4.05003 14.464,9.5465 z m -435.957,163.1585 c 24.301,12.43939 37.03,33.55743 37.03,61.32909 0,74.05776 -100.962,95.46508 -131.626,27.77166 -16.201,-35.29315 2.892,-79.26495 40.5,-93.44007 13.885,-5.20718 39.632,-3.18217 54.096,4.33932 z m 1074.995,-3.47145 c 14.754,4.9179 31.243,19.3823 39.054,33.84671 6.943,12.43938 6.943,49.17898 0.289,61.61837 -17.646,32.40027 -57.278,47.15396 -89.101,32.68955 -27.771,-12.43938 -41.657,-33.8467 -41.657,-63.35409 0,-22.56447 7.232,-38.47532 24.011,-52.36115 19.961,-17.068 42.525,-21.11804 67.404,-12.43939 z m -846.746,241.84487 171.837,98.93654 -2.025,8.67864 c -1.157,4.9179 -2.025,19.382307 -1.736,32.110987 0,19.960879 1.447,26.325219 8.968,42.525356 12.15,26.035925 28.929,43.3932117 53.808,55.832607 10.993,5.496469 21.986,10.125082 24.011,10.125082 3.471,0 4.05,32.978844 4.05,199.608808 0,157.66203 -0.868,199.6088 -3.471,199.6088 -6.944,0 -39.054,16.7787 -49.18,25.74663 -5.785,4.91792 -10.993,8.96792 -12.149,8.96792 -1.447,0 -75.505,-42.23604 -278.007,-159.39773 -56.989,-32.68956 -63.643,-37.31817 -62.775,-43.39322 3.182,-26.6145 1.157,-56.98976 -4.918,-72.9006 -12.729,-32.40027 -39.054,-57.56834 -70.876,-67.69343 l -16.2,-5.20718 V -89.155783 c 0,-187.458707 0.29,-198.740937 5.208,-198.740937 7.81,0 32.689,-12.72868 46.864,-24.01092 7.232,-5.78576 13.307,-10.41437 13.886,-10.41437 0.578,-0.28929 78.107,44.26108 172.705,98.64725 z m 743.47,-93.15078 c 8.679,9.54651 30.954,22.56448 45.708,26.32522 l 13.596,3.76075 v 62.48623 c 0,34.136 -0.867,123.52603 -2.024,198.740947 l -1.736,136.543993 -16.779,6.07505 c -46.576,16.77871 -78.397,66.53627 -74.057,115.42596 1.156,10.41438 2.602,21.69661 3.471,24.87878 1.157,4.9179 -19.961,18.22515 -165.184,101.25085 -91.704,52.36115 -169.233,96.62223 -172.126,98.06866 -4.05,2.025 -7.811,0.28929 -15.911,-6.94292 -10.703,-9.25722 -42.526,-26.03592 -49.468,-26.03592 -2.893,0 -3.761,-41.94677 -3.761,-199.6088 0,-166.629964 0.579,-199.608808 4.05,-199.608808 2.025,0 13.018,-4.628613 24.011,-10.125082 24.878,-12.4393953 41.657,-29.796682 53.808,-55.832607 7.521,-16.200137 8.967,-22.564477 8.967,-42.525356 0.29,-12.72868 -0.578,-27.193087 -1.736,-32.110987 l -2.025,-8.67864 139.437,-80.13281 c 76.662,-43.9718 153.901,-88.52217 171.259,-98.64725 17.647,-10.41437 32.689,-18.80373 33.558,-19.09302 0.867,0 4.049,2.6036 6.942,5.78576 z m -440.007,162.57993 c 15.911,4.62861 39.922,28.63953 44.551,44.55037 8.1,27.193083 2.313,48.889696 -18.226,69.139866 -29.218,29.507389 -66.247,29.507389 -95.465,0 -29.507,-29.218103 -29.507,-66.246986 0,-95.465086 20.25,-20.53945 41.947,-26.03593 69.14,-18.22515 z m -531.712,317.05979 c 24.301,12.43939 37.03,33.55742 37.03,61.32908 0,69.13986 -90.548,95.17579 -126.709,36.4503 -23.143,-37.31816 -6.075,-86.49715 35.004,-101.82942 14.464,-5.49647 39.922,-3.47145 54.675,4.05004 z m 1074.995,-3.47147 c 26.615,8.96794 45.707,35.87173 45.707,64.80055 0,51.49328 -54.675,84.76142 -100.382,61.03979 -24.011,-12.1501 -36.74,-33.26814 -36.74,-61.03979 0,-48.60041 45.129,-80.71139 91.415,-64.80055 z m -543.283,311.27404 c 24.879,7.5215 48.022,39.3432 48.022,65.95769 0,35.8717 -33.557,69.42912 -69.429,69.42912 -35.872,0 -69.429,-33.55742 -69.429,-69.42912 0,-18.22514 6.654,-32.97884 21.696,-47.73255 20.25,-20.53942 41.947,-26.03592 69.14,-18.22514 z"
   id="path975" /></g><g
     id="g33"
     transform="translate(12149.412,3763.6616)" /><g
     id="g35"
     transform="translate(12149.412,3763.6616)" /><g
     id="g37"
     transform="translate(12149.412,3763.6616)" /><g
     id="g39"
     transform="translate(12149.412,3763.6616)" /><g
     id="g41"
     transform="translate(12149.412,3763.6616)" /><g
     id="g43"
     transform="translate(12149.412,3763.6616)" /><g
     id="g45"
     transform="translate(12149.412,3763.6616)" /><g
     id="g47"
     transform="translate(12149.412,3763.6616)" /><g
     id="g49"
     transform="translate(12149.412,3763.6616)" /><g
     id="g51"
     transform="translate(12149.412,3763.6616)" /><g
     id="g53"
     transform="translate(12149.412,3763.6616)" /><g
     id="g55"
     transform="translate(12149.412,3763.6616)" /><g
     id="g57"
     transform="translate(12149.412,3763.6616)" /><g
     id="g59"
     transform="translate(12149.412,3763.6616)" /><g
     id="g61"
     transform="translate(12149.412,3763.6616)" /></svg>
